<svg width="24" height="14" viewBox="0 0 24 14" fill="none" xmlns="http://www.w3.org/2000/svg">
<path fill-rule="evenodd" clip-rule="evenodd" d="M7.97628 0.711216C7.8892 0.62391 7.78574 0.554642 7.67185 0.50738C7.55795 0.460118 7.43585 0.435791 7.31253 0.435791C7.18922 0.435791 7.06712 0.460118 6.95322 0.50738C6.83932 0.554642 6.73587 0.62391 6.64878 0.711216L1.02378 6.33622C0.936479 6.4233 0.867211 6.52676 0.819949 6.64065C0.772687 6.75455 0.74836 6.87665 0.74836 6.99997C0.74836 7.12328 0.772687 7.24538 0.819949 7.35928C0.867211 7.47318 0.936479 7.57663 1.02378 7.66372L6.64878 13.2887C6.82482 13.4648 7.06358 13.5636 7.31253 13.5636C7.56149 13.5636 7.80025 13.4648 7.97628 13.2887C8.15232 13.1127 8.25122 12.8739 8.25122 12.625C8.25122 12.376 8.15232 12.1373 7.97628 11.9612L3.01316 6.99997L7.97628 2.03872C8.06359 1.95163 8.13286 1.84818 8.18012 1.73428C8.22738 1.62038 8.25171 1.49828 8.25171 1.37497C8.25171 1.25165 8.22738 1.12955 8.18012 1.01565C8.13286 0.901756 8.06359 0.798302 7.97628 0.711216Z" fill="white"/>
<path fill-rule="evenodd" clip-rule="evenodd" d="M23.25 7C23.25 6.75136 23.1512 6.5129 22.9754 6.33709C22.7996 6.16127 22.5611 6.0625 22.3125 6.0625H2.625C2.37636 6.0625 2.1379 6.16127 1.96209 6.33709C1.78627 6.5129 1.6875 6.75136 1.6875 7C1.6875 7.24864 1.78627 7.4871 1.96209 7.66291C2.1379 7.83873 2.37636 7.9375 2.625 7.9375H22.3125C22.5611 7.9375 22.7996 7.83873 22.9754 7.66291C23.1512 7.4871 23.25 7.24864 23.25 7Z" fill="white"/>
</svg>
