<svg width="14" height="11" viewBox="0 0 14 11" fill="none" xmlns="http://www.w3.org/2000/svg">
<path d="M13.7022 1.38667C13.6609 1.33569 13.6087 1.2945 13.5496 1.26607C13.4904 1.23763 13.4257 1.22266 13.36 1.22223H4.10667L4.39556 2.11112H12.7778L11.5911 7.44445H4.92445L2.89334 1.01334C2.87137 0.945099 2.83322 0.883186 2.78214 0.832882C2.73107 0.782578 2.66858 0.745376 2.60001 0.724451L0.777786 0.16445C0.721756 0.147233 0.662882 0.14122 0.604528 0.146755C0.546173 0.152289 0.48948 0.169264 0.437686 0.196709C0.333082 0.252136 0.254781 0.346847 0.220008 0.460006C0.185236 0.573165 0.196839 0.695503 0.252267 0.800107C0.307694 0.90471 0.402405 0.983011 0.515564 1.01778L2.11112 1.50667L4.15112 7.95112L3.42223 8.54667L3.36445 8.60445C3.18416 8.81223 3.08196 9.07637 3.07547 9.35139C3.06898 9.6264 3.1586 9.89507 3.3289 10.1111C3.45003 10.2584 3.60397 10.3754 3.77838 10.4525C3.9528 10.5297 4.14285 10.565 4.33334 10.5556H11.7511C11.869 10.5556 11.982 10.5087 12.0654 10.4254C12.1487 10.342 12.1956 10.229 12.1956 10.1111C12.1956 9.99324 12.1487 9.8802 12.0654 9.79685C11.982 9.7135 11.869 9.66667 11.7511 9.66667H4.26223C4.21105 9.66493 4.16119 9.65001 4.11746 9.62336C4.07373 9.59672 4.0376 9.55925 4.01258 9.51457C3.98756 9.46988 3.97449 9.41951 3.97462 9.3683C3.97475 9.31709 3.98809 9.26678 4.01334 9.22223L5.08445 8.33334H11.9467C12.0494 8.33585 12.1498 8.30268 12.2309 8.23947C12.3119 8.17627 12.3685 8.08693 12.3911 7.98667L13.8 1.76445C13.8135 1.69819 13.8117 1.62972 13.7948 1.56426C13.7779 1.49879 13.7462 1.43805 13.7022 1.38667Z" fill="black"/>
</svg>
