<svg height="512pt" viewBox="0 -68 512 512" width="512pt" xmlns="http://www.w3.org/2000/svg"><path d="m96 376c-48.519531 0-88-39.480469-88-88 0-4.425781 3.574219-8 8-8s8 3.574219 8 8c0 39.703125 32.296875 72 72 72 4.425781 0 8 3.574219 8 8s-3.574219 8-8 8zm0 0"/><path d="m104 192c-57.34375 0-104-46.65625-104-104 0-4.425781 3.574219-8 8-8s8 3.574219 8 8c0 48.519531 39.480469 88 88 88 4.425781 0 8 3.574219 8 8s-3.574219 8-8 8zm0 0"/><path d="m16 296c-4.425781 0-8-3.574219-8-8v-161.542969c0-4.425781 3.574219-8 8-8s8 3.574219 8 8v161.542969c0 4.425781-3.574219 8-8 8zm0 0"/><path d="m288 376c-4.425781 0-8-3.574219-8-8s3.574219-8 8-8c39.703125 0 72-32.296875 72-72 0-4.425781 3.574219-8 8-8s8 3.574219 8 8c0 48.519531-39.480469 88-88 88zm0 0"/><path d="m280 192c-4.425781 0-8-3.574219-8-8s3.574219-8 8-8c48.519531 0 88-39.480469 88-88 0-4.425781 3.574219-8 8-8s8 3.574219 8 8c0 57.34375-46.65625 104-104 104zm0 0"/><path d="m368 296c-4.425781 0-8-3.574219-8-8v-161.542969c0-4.425781 3.574219-8 8-8s8 3.574219 8 8v161.542969c0 4.425781-3.574219 8-8 8zm0 0"/><path d="m288 376h-192c-4.425781 0-8-3.574219-8-8s3.574219-8 8-8h192c4.425781 0 8 3.574219 8 8s-3.574219 8-8 8zm0 0"/><path d="m168 192h-64c-4.425781 0-8-3.574219-8-8s3.574219-8 8-8h64c4.425781 0 8 3.574219 8 8s-3.574219 8-8 8zm0 0"/><path d="m280 192h-64c-4.425781 0-8-3.574219-8-8s3.574219-8 8-8h64c4.425781 0 8 3.574219 8 8s-3.574219 8-8 8zm0 0"/><path d="m376 96c-4.425781 0-8-3.574219-8-8v-40c0-4.425781 3.574219-8 8-8s8 3.574219 8 8v40c0 4.425781-3.574219 8-8 8zm0 0"/><path d="m376 56c-4.425781 0-8-3.574219-8-8 0-13.230469-10.769531-24-24-24-4.425781 0-8-3.574219-8-8s3.574219-8 8-8c22.054688 0 40 17.945312 40 40 0 4.425781-3.574219 8-8 8zm0 0"/><path d="m8 96c-4.425781 0-8-3.574219-8-8v-40c0-4.425781 3.574219-8 8-8s8 3.574219 8 8v40c0 4.425781-3.574219 8-8 8zm0 0"/><path d="m8 56c-4.425781 0-8-3.574219-8-8 0-22.054688 17.945312-40 40-40 4.425781 0 8 3.574219 8 8s-3.574219 8-8 8c-13.230469 0-24 10.769531-24 24 0 4.425781-3.574219 8-8 8zm0 0"/><path d="m168 24h-128c-4.425781 0-8-3.574219-8-8s3.574219-8 8-8h128c4.425781 0 8 3.574219 8 8s-3.574219 8-8 8zm0 0"/><path d="m168 240c-4.425781 0-8-3.574219-8-8v-224c0-4.425781 3.574219-8 8-8s8 3.574219 8 8v224c0 4.425781-3.574219 8-8 8zm0 0"/><path d="m216 240c-4.425781 0-8-3.574219-8-8v-224c0-4.425781 3.574219-8 8-8s8 3.574219 8 8v224c0 4.425781-3.574219 8-8 8zm0 0"/><path d="m191.992188 256c-1.519532 0-3.0625-.441406-4.433594-1.34375l-24-16c-3.679688-2.457031-4.671875-7.417969-2.214844-11.097656 2.449219-3.671875 7.398438-4.671875 11.097656-2.214844l24 16c3.679688 2.457031 4.671875 7.417969 2.214844 11.097656-1.535156 2.3125-4.082031 3.558594-6.664062 3.558594zm0 0"/><path d="m192.007812 256c-2.582031 0-5.128906-1.246094-6.664062-3.558594-2.457031-3.679687-1.464844-8.640625 2.214844-11.097656l24-16c3.679687-2.457031 8.640625-1.457031 11.097656 2.214844 2.457031 3.679687 1.464844 8.640625-2.214844 11.097656l-24 16c-1.371094.902344-2.914062 1.34375-4.433594 1.34375zm0 0"/><path d="m216 168h-48c-4.425781 0-8-3.574219-8-8s3.574219-8 8-8h48c4.425781 0 8 3.574219 8 8s-3.574219 8-8 8zm0 0"/><path d="m216 208h-48c-4.425781 0-8-3.574219-8-8s3.574219-8 8-8h48c4.425781 0 8 3.574219 8 8s-3.574219 8-8 8zm0 0"/><path d="m336.015625 228c-4.421875 0-8-3.574219-8-8v-12c0-4.425781 3.578125-8 8-8 4.425781 0 8 3.574219 8 8v12c0 4.425781-3.574219 8-8 8zm0 0"/><path d="m288.078125 344c-.023437 0-.046875 0-.070313 0h-7.71875c-4.425781 0-8-3.574219-8-8s3.574219-8 8-8h7.726563.054687c4.867188 0 9.625-.878906 14.152344-2.617188 4.121094-1.574218 8.761719.480469 10.335938 4.601563 1.585937 4.128906-.480469 8.75-4.597656 10.335937-6.367188 2.449219-13.058594 3.679688-19.882813 3.679688zm-32.964844 0h-25.191406c-4.425781 0-8-3.574219-8-8s3.574219-8 8-8h25.183594c4.421875 0 8 3.574219 8 8s-3.578125 8-7.992188 8zm-50.371093 0h-25.183594c-4.421875 0-8-3.574219-8-8s3.578125-8 8-8h25.183594c4.425781 0 8 3.574219 8 8s-3.574219 8-8 8zm-50.367188 0h-25.183594c-4.421875 0-8-3.574219-8-8s3.578125-8 8-8h25.183594c4.425781 0 8 3.574219 8 8s-3.574219 8-8 8zm-50.375 0h-8c-6.753906 0-13.351562-1.199219-19.632812-3.566406-4.136719-1.554688-6.222657-6.167969-4.664063-10.304688 1.554687-4.136718 6.167969-6.226562 10.304687-4.664062 4.472657 1.6875 9.175782 2.535156 13.992188 2.535156h8c4.425781 0 8 3.574219 8 8s-3.574219 8-8 8zm-45.03125-17.558594c-2.3125 0-4.601562-.992187-6.175781-2.914062-6.289063-7.625-10.457031-16.765625-12.039063-26.4375-.722656-4.363282 2.230469-8.480469 6.589844-9.1875 4.367188-.789063 8.480469 2.234375 9.183594 6.59375 1.144531 6.878906 4.113281 13.40625 8.601562 18.855468 2.816406 3.410157 2.328125 8.457032-1.089844 11.257813-1.488281 1.222656-3.277343 1.832031-5.070312 1.832031zm266.253906-.21875c-1.773437 0-3.558594-.582031-5.046875-1.796875-3.421875-2.792969-3.9375-7.832031-1.152343-11.257812 4.464843-5.472657 7.390624-12.007813 8.496093-18.902344.695313-4.363281 4.6875-7.355469 9.160157-6.640625 4.359374.6875 7.335937 4.789062 6.640624 9.160156-1.535156 9.679688-5.648437 18.839844-11.878906 26.503906-1.59375 1.925782-3.890625 2.933594-6.21875 2.933594zm-277.222656-47.582031c-4.425781 0-8-3.578125-8-8v-25.175781c0-4.425782 3.574219-8 8-8s8 3.574218 8 8v25.175781c0 4.421875-3.574219 8-8 8zm288.015625-.265625c-4.421875 0-8-3.574219-8-8v-25.183594c0-4.421875 3.578125-8 8-8 4.425781 0 8 3.578125 8 8v25.183594c0 4.425781-3.574219 8-8 8zm0 0"/><path d="m48 228c-4.425781 0-8-3.574219-8-8v-12c0-4.425781 3.574219-8 8-8s8 3.574219 8 8v12c0 4.425781-3.574219 8-8 8zm0 0"/><path d="m440 240c-4.425781 0-8-3.574219-8-8v-168c0-4.425781 3.574219-8 8-8s8 3.574219 8 8v168c0 4.425781-3.574219 8-8 8zm0 0"/><path d="m440 288c-13.230469 0-24-10.769531-24-24 0-9.3125 7.488281-40 24-40s24 30.6875 24 40c0 13.230469-10.769531 24-24 24zm0-47.320312c-3.433594 3.832031-8 16.710937-8 23.320312 0 4.414062 3.585938 8 8 8s8-3.585938 8-8c0-6.609375-4.566406-19.488281-8-23.320312zm0 0"/><path d="m484 264h-84c-4.425781 0-8-3.574219-8-8s3.574219-8 8-8h84c4.425781 0 8 3.574219 8 8s-3.574219 8-8 8zm0 0"/><path d="m484 288c-4.425781 0-8-3.574219-8-8s3.574219-8 8-8c2.199219 0 4-1.800781 4-4s-1.800781-4-4-4c-4.425781 0-8-3.574219-8-8s3.574219-8 8-8c11.03125 0 20 8.96875 20 20s-8.96875 20-20 20zm0 0"/><path d="m484 312c-11.03125 0-20-8.96875-20-20s8.96875-20 20-20c4.425781 0 8 3.574219 8 8s-3.574219 8-8 8c-2.199219 0-4 1.800781-4 4s1.800781 4 4 4c4.425781 0 8 3.574219 8 8s-3.574219 8-8 8zm0 0"/><path d="m504 312h-20c-4.425781 0-8-3.574219-8-8s3.574219-8 8-8h20c4.425781 0 8 3.574219 8 8s-3.574219 8-8 8zm0 0"/><path d="m216 16h-48c-4.425781 0-8-3.574219-8-8s3.574219-8 8-8h48c4.425781 0 8 3.574219 8 8s-3.574219 8-8 8zm0 0"/><path d="m344 24h-128c-4.425781 0-8-3.574219-8-8s3.574219-8 8-8h128c4.425781 0 8 3.574219 8 8s-3.574219 8-8 8zm0 0"/></svg>