<?xml version="1.0"?>
<svg xmlns="http://www.w3.org/2000/svg" id="outline" viewBox="0 0 512 512" width="512" height="512"><path d="M339.75977,121.21582,312,138.56592V96a8.00008,8.00008,0,0,0-8-8H246.78223a23.42021,23.42021,0,0,0-9.79981-27.32031L180.24023,25.21582A8.0036,8.0036,0,0,0,176,24H16V40H88v96H16v16H92.25293l28.00586,33.60693A39.89229,39.89229,0,0,0,150.98828,200H200v48h16V200h5.57812a26.42232,26.42232,0,0,0,21.98438-41.07861L228.28149,136H296v12.566l-12.98242,8.11414A23.44146,23.44146,0,0,0,295.44141,200h17.61035L276.4375,254.92139A26.42232,26.42232,0,0,0,298.42188,296H324l19.873,26.49756A119.90912,119.90912,0,0,1,356.69678,344H320v16h42.78516a121.2503,121.2503,0,0,1,4.6958,24H352v16h15.88965a120.52852,120.52852,0,0,1-3.499,24H312v16h47.207a120.528,120.528,0,0,1-17.6416,30.23682L340.15527,472H272v16h72a7.99951,7.99951,0,0,0,6.24707-3.00244l3.8125-4.76563a136.63438,136.63438,0,0,0,2.61426-167.334L344.00049,296h25.01123a39.88993,39.88993,0,0,0,30.72851-14.39258L427.74707,248H496V232H432V136h64V120H344A8.0036,8.0036,0,0,0,339.75977,121.21582ZM232,173.57764A10.43354,10.43354,0,0,1,221.57812,184h-1.57788l-45.59985-60.7998-12.80078,9.5996L199.99976,184H180.00024l-45.59985-60.7998-12.80078,9.5996L159.99976,184h-9.01148a23.93429,23.93429,0,0,1-18.4375-8.63574L104,141.10376V40h69.70605L228.502,74.24756A7.44164,7.44164,0,0,1,224.55859,88H192a7.99956,7.99956,0,0,0-6.65625,12.4375L230.25,167.79639A10.39392,10.39392,0,0,1,232,173.57764ZM217.615,120l-10.66675-16H296v16ZM416,136V237.10376l-28.55176,34.261A23.93194,23.93194,0,0,1,369.01172,280H360l38.40039-51.2002-12.80078-9.5996L340,280H320l38.40039-51.2002-12.80078-9.5996L300,280h-1.57812A10.42283,10.42283,0,0,1,289.75,263.79639l44.90625-67.35889A7.99956,7.99956,0,0,0,328,184H295.44141a7.44133,7.44133,0,0,1-3.94336-13.75195L346.294,136Z"/><path d="M38.1416,366.54443a75.59861,75.59861,0,0,0,0,106.91114l12.20117,12.20117A8.00076,8.00076,0,0,0,56,488H240a8.00076,8.00076,0,0,0,5.65723-2.34326l12.20117-12.20117a75.59861,75.59861,0,0,0,0-106.91114A60.56973,60.56973,0,0,1,240,323.43164v-17.543l15.15527-30.311A7.99928,7.99928,0,0,0,248,264H48a7.99928,7.99928,0,0,0-7.15527,11.57764L56,305.88867v17.543A60.56973,60.56973,0,0,1,38.1416,366.54443ZM72,323.43164V312H96V296H68.94409l-7.99975-16H235.05566l-7.99975,16H152v16h72v11.43164A76.41708,76.41708,0,0,0,244.77441,376H192v16h65.044A59.3037,59.3037,0,0,1,264,420c0,1.3418-.06006,2.67346-.14746,4H224v16h36.57422A59.38062,59.38062,0,0,1,246.544,462.14209L236.68652,472H59.31348l-9.85743-9.85791A59.38363,59.38363,0,0,1,35.42578,440H120V424H32.14771C32.0603,422.67346,32,421.3418,32,420a59.20608,59.20608,0,0,1,17.456-42.14209A76.46877,76.46877,0,0,0,72,323.43164Z"/><rect x="120" y="296" width="16" height="16"/><rect x="80" y="376" width="16" height="16"/><rect x="112" y="376" width="64" height="16"/><rect x="136" y="424" width="72" height="16"/><rect x="280" y="344" width="24" height="16"/><rect x="296" y="384" width="40" height="16"/></svg>
